<?xml version="1.0" standalone="no"?>
<!DOCTYPE svg PUBLIC "-//W3C//DTD SVG 20010904//EN"
 "http://www.w3.org/TR/2001/REC-SVG-20010904/DTD/svg10.dtd">
<svg version="1.0" xmlns="http://www.w3.org/2000/svg"
 width="1200.000000pt" height="346.000000pt" viewBox="0 0 1200.000000 346.000000"
 preserveAspectRatio="xMidYMid meet">

<g transform="translate(0.000000,346.000000) scale(0.100000,-0.100000)"
fill="#000000" stroke="none">
<path d="M2130 3289 c-383 -44 -677 -196 -956 -492 -153 -162 -246 -300 -424
-627 -273 -501 -358 -618 -528 -724 -24 -15 -42 -30 -39 -32 8 -8 245 52 342
86 126 44 274 117 380 187 248 164 381 303 765 798 156 202 352 400 475 480
112 73 352 197 508 261 64 27 117 51 117 55 0 17 -505 23 -640 8z"/>
<path d="M3435 3289 c-595 -33 -1091 -283 -1517 -766 -57 -65 -186 -221 -288
-347 -258 -321 -372 -432 -595 -579 -179 -118 -443 -235 -628 -277 l-98 -23
48 -26 c159 -87 378 -165 559 -201 141 -28 394 -38 542 -20 219 26 438 92 647
196 169 84 293 173 431 309 194 192 291 335 578 850 220 394 294 502 455 663
65 65 203 186 227 200 10 6 17 12 14 15 -10 9 -249 13 -375 6z"/>
<path d="M4057 2954 c-4 -4 -7 -393 -7 -865 0 -772 2 -857 16 -863 9 -3 193
-6 409 -6 431 0 481 5 618 58 163 63 274 172 332 327 75 197 81 691 13 915
-49 159 -160 294 -298 362 -139 69 -155 71 -640 75 -239 3 -438 1 -443 -3z
m826 -360 c142 -50 174 -167 164 -584 -6 -261 -17 -312 -76 -371 -57 -58 -123
-73 -316 -73 l-160 -1 -3 522 -2 522 62 4 c101 7 289 -4 331 -19z"/>
<path d="M7655 2950 c-135 -22 -264 -85 -334 -165 -42 -48 -87 -142 -102 -213
-6 -31 -9 -109 -7 -181 3 -113 6 -131 30 -177 37 -70 124 -147 222 -194 44
-21 151 -60 236 -86 253 -76 330 -122 330 -195 0 -150 -209 -192 -618 -124
-84 14 -160 25 -169 25 -14 0 -15 -12 -9 -97 11 -158 26 -267 39 -280 13 -13
226 -38 402 -48 161 -9 371 10 463 41 87 29 169 80 213 133 79 96 125 248 116
391 -14 228 -118 329 -447 434 -207 67 -273 93 -319 126 -51 37 -65 63 -58
112 18 138 233 179 610 117 65 -11 122 -17 126 -15 9 6 -25 356 -36 367 -27
26 -561 49 -688 29z"/>
<path d="M6318 2933 c-9 -10 -117 -175 -240 -368 -124 -192 -269 -417 -322
-499 -53 -83 -99 -159 -102 -170 -2 -12 -3 -84 -2 -161 l3 -140 420 -5 420 -5
5 -180 5 -180 170 0 170 0 5 180 5 180 88 3 c48 1 87 4 87 5 0 1 9 72 20 157
11 85 20 163 20 172 0 15 -13 18 -102 20 l-103 3 -9 503 -9 502 -257 0 c-232
0 -258 -2 -272 -17z m177 -980 c-5 -15 -370 -19 -379 -4 -5 7 74 132 333 526
l46 70 3 -290 c1 -159 0 -295 -3 -302z"/>
<path d="M8828 2931 c-73 -15 -98 -58 -98 -166 0 -85 14 -122 57 -151 40 -27
225 -28 267 -1 45 30 69 98 63 175 -5 71 -26 108 -71 131 -33 16 -166 23 -218
12z"/>
<path d="M9650 2456 c-151 -42 -243 -146 -273 -308 -16 -88 -15 -605 1 -680
25 -112 105 -191 227 -223 100 -26 357 -20 459 11 17 6 18 1 14 -50 -5 -64
-28 -103 -74 -126 -44 -22 -264 -25 -411 -6 -183 24 -163 40 -163 -128 0 -103
4 -146 13 -154 27 -22 143 -35 368 -39 226 -5 241 -4 314 18 176 52 293 178
325 350 6 32 11 320 13 694 l2 640 -160 0 c-152 0 -160 -1 -163 -20 -7 -45 -9
-45 -75 -21 -138 52 -315 70 -417 42z m310 -327 c25 -5 62 -14 83 -20 l37 -10
0 -253 0 -254 -52 -23 c-67 -29 -176 -32 -226 -5 -58 30 -65 63 -61 287 4 181
6 200 25 226 41 56 103 73 194 52z"/>
<path d="M11250 2451 c-36 -10 -89 -28 -118 -40 -60 -24 -66 -22 -87 20 l-16
30 -157 -3 -157 -3 -3 -595 c-1 -327 0 -605 3 -618 l5 -22 188 2 187 3 3 441
2 442 43 17 c56 23 177 31 217 15 64 -27 65 -31 68 -485 2 -271 7 -414 14
-422 8 -10 56 -13 190 -13 156 0 179 2 185 16 3 9 2 235 -3 503 l-10 486 -25
55 c-37 79 -71 115 -146 152 -63 31 -73 33 -192 35 -99 2 -140 -1 -191 -16z"/>
<path d="M8735 2438 c-3 -7 -4 -283 -3 -613 l3 -600 181 -3 c145 -2 184 0 193
11 8 11 10 174 9 613 l-3 599 -188 3 c-144 2 -189 0 -192 -10z"/>
<path d="M4097 904 c-4 -4 -7 -89 -7 -190 0 -207 -7 -194 96 -194 37 0 61 6
85 23 45 30 59 60 59 129 0 46 -5 62 -26 87 -32 38 -86 51 -126 28 l-27 -16
-3 67 c-3 59 -6 67 -23 70 -12 2 -24 0 -28 -4z m169 -191 c32 -75 -2 -145 -73
-147 l-38 -1 -3 74 c-3 87 11 111 65 111 30 0 36 -5 49 -37z"/>
<path d="M5338 793 l-28 -4 0 -203 c0 -276 16 -336 105 -388 34 -19 54 -23
130 -23 116 0 166 24 204 100 25 48 26 55 29 281 l4 231 -37 7 c-21 4 -55 4
-76 1 l-38 -7 -3 -219 c-3 -210 -4 -219 -25 -241 -27 -26 -85 -30 -109 -6 -26
26 -34 86 -34 279 l0 187 -31 6 c-32 6 -44 6 -91 -1z"/>
<path d="M6065 784 c-63 -22 -111 -68 -146 -140 -29 -59 -33 -76 -33 -153 -1
-115 21 -179 84 -242 54 -54 120 -79 206 -79 70 0 154 19 161 36 2 7 -3 36
-12 64 l-17 51 -46 -8 c-103 -17 -159 -1 -194 56 -32 50 -33 179 -3 231 29 50
78 73 140 65 102 -12 97 -13 111 25 7 19 13 47 13 61 1 23 -5 28 -43 38 -61
15 -172 13 -221 -5z"/>
<path d="M6580 791 c-76 -23 -136 -78 -172 -156 -19 -42 -23 -66 -23 -155 1
-89 4 -112 24 -152 63 -129 213 -187 376 -145 47 13 50 15 47 43 -2 16 -10 44
-18 62 -13 33 -15 34 -56 26 -97 -19 -159 -2 -195 53 -28 42 -26 201 3 240 42
58 117 75 211 47 20 -5 24 0 38 50 9 31 14 60 11 65 -16 25 -185 40 -246 22z"/>
<path d="M6953 793 l-23 -4 0 -303 0 -303 41 -6 c23 -3 56 -3 75 0 l34 6 0
123 0 124 75 0 75 0 0 -124 0 -123 43 -6 c23 -3 58 -2 77 2 l35 7 3 301 2 301
-40 7 c-22 4 -58 4 -80 0 l-40 -7 0 -109 0 -109 -75 0 -75 0 0 109 c0 104 -1
109 -22 115 -25 6 -69 6 -105 -1z"/>
<path d="M8982 793 l-22 -4 2 -302 3 -301 35 -7 c19 -4 54 -5 78 -2 l42 6 0
302 0 303 -31 6 c-33 6 -69 6 -107 -1z"/>
<path d="M4406 656 c34 -102 50 -136 64 -138 17 -3 17 -5 3 -40 -13 -32 -20
-38 -44 -38 -28 0 -49 -23 -35 -37 15 -15 77 -6 95 13 15 16 131 340 131 367
0 5 -12 7 -26 5 -25 -3 -29 -12 -63 -122 -25 -84 -37 -113 -43 -100 -4 11 -21
65 -38 122 -30 99 -32 102 -60 102 l-29 0 45 -134z"/>
<path d="M4800 725 l0 -65 105 0 c58 0 105 -2 105 -4 0 -2 -52 -104 -115 -227
-64 -123 -113 -229 -110 -236 3 -10 54 -13 215 -13 l210 0 0 65 0 65 -106 0
-106 0 117 226 c64 124 114 232 111 240 -4 11 -45 14 -216 14 l-210 0 0 -65z"/>
<path d="M7510 485 l0 -305 179 0 c197 0 191 -2 191 65 0 64 -2 65 -116 65
l-104 0 0 60 0 60 79 0 c88 0 91 3 91 70 0 67 -3 70 -91 70 l-79 0 0 45 0 45
105 0 105 0 0 65 0 65 -180 0 -180 0 0 -305z"/>
<path d="M7940 725 l0 -65 75 0 75 0 0 -239 0 -238 34 -6 c19 -3 52 -3 75 0
l41 6 0 238 0 239 69 0 c69 0 69 0 76 31 4 17 4 46 1 65 l-7 34 -219 0 -220 0
0 -65z"/>
<path d="M8436 774 c-3 -9 -6 -31 -6 -49 0 -61 5 -65 81 -65 l69 0 0 -239 0
-238 41 -6 c23 -3 56 -3 75 0 l34 6 0 238 0 239 75 0 75 0 0 65 0 65 -219 0
c-190 0 -220 -2 -225 -16z"/>
</g>
</svg>
