<?xml version="1.0" encoding="utf-8"?>
<!-- Generator: Adobe Illustrator 22.0.1, SVG Export Plug-In . SVG Version: 6.00 Build 0)  -->
<svg version="1.1" id="Layer_1" xmlns="http://www.w3.org/2000/svg" xmlns:xlink="http://www.w3.org/1999/xlink" x="0px" y="0px"
	 viewBox="0 0 329.2 81.8" style="enable-background:new 0 0 329.2 81.8;" xml:space="preserve">
<style type="text/css">
	.st0{fill:#E1322D;}
	.st1{fill:#15477B;}
</style>
<title>dealernet</title>
<g id="Layer_2_1_">
	<g id="Layer_1-2">
		<path class="st0" d="M286.3,68.1c45.4-6.8,48.4-49.2-60.1-43.5c-29.1,3-56.4,11.2-97.5-1.9C100.4,10.6,66,1,0,4.1
			c27.1-4.2,54.6-5.2,81.9-3c26.8,4.3,53.2,15.7,74.4,18.3c33.4,2.9,55.6,2.2,87.7,1C308,17.9,375.4,56,286.3,68.1"/>
		<path class="st1" d="M1,79.9v-1.2h1.7c1.6,0.2,3.2-0.6,4.1-1.9c0.5-0.7,0.7-2.4,0.7-5V42.2c0-2.9-0.3-4.7-0.9-5.4
			c-1-1-2.5-1.6-3.9-1.5H1v-1.2h18.6c6.8,0,12,0.8,15.6,2.3c3.6,1.6,6.6,4.3,8.6,7.8c2.2,3.8,3.3,8.2,3.3,12.6
			c0.2,5.9-1.9,11.6-5.8,16c-4.3,4.8-11,7.2-19.9,7.2L1,79.9z M14,76.6c2.4,0.6,4.8,0.9,7.2,0.9c4.9,0.1,9.7-1.9,13-5.5
			c3.5-3.7,5.2-8.6,5.2-14.9c0-6.3-1.7-11.3-5.2-15c-3.4-3.6-8.2-5.6-13.2-5.4c-2.3,0-4.7,0.4-6.9,1L14,76.6z"/>
		<path class="st1" d="M57.1,60.6c0,4.6,1.1,8.2,3.3,10.8c1.9,2.4,4.8,3.9,7.9,3.9c1.9,0,3.8-0.6,5.3-1.7c1.8-1.5,3.1-3.5,3.8-5.7
			l1,0.7c-0.5,3.1-1.9,6.1-4.1,8.4c-2.1,2.5-5.3,3.9-8.5,3.8c-3.7,0-7.2-1.6-9.5-4.3c-2.7-2.9-4-6.8-4-11.7c0-5.3,1.4-9.4,4.1-12.4
			c2.6-2.9,6.3-4.5,10.2-4.4c3.2-0.1,6.3,1.1,8.5,3.4c2.3,2.5,3.5,5.8,3.3,9.2L57.1,60.6z M57.1,58.6h14.3c0-1.4-0.2-2.8-0.7-4.2
			c-0.5-1.2-1.4-2.3-2.5-3c-1-0.7-2.3-1.1-3.5-1.1c-1.9,0-3.7,0.8-5,2.2C58.1,54.2,57.2,56.4,57.1,58.6L57.1,58.6z"/>
		<path class="st1" d="M100.1,75.5c-1.9,1.6-3.9,3-6,4.2c-1.2,0.6-2.5,0.9-3.9,0.8c-2,0-3.9-0.8-5.2-2.2c-1.4-1.6-2.2-3.6-2.1-5.8
			c0-1.4,0.3-2.7,1-3.9c1.2-1.8,2.9-3.3,4.8-4.3c3.7-2,7.5-3.6,11.4-4.9v-1.2c0-3.1-0.5-5.2-1.5-6.3c-1.1-1.2-2.7-1.8-4.3-1.7
			c-1.2-0.1-2.5,0.3-3.4,1.2c-0.8,0.6-1.3,1.6-1.3,2.6l0.1,2c0.1,0.9-0.2,1.7-0.8,2.4c-0.5,0.6-1.3,0.9-2.1,0.8
			c-0.8,0-1.5-0.3-2-0.9c-0.6-0.7-0.8-1.5-0.8-2.4c0-1.9,1-3.7,3-5.3c2-1.6,4.8-2.5,8.3-2.5c2.3-0.1,4.7,0.4,6.8,1.4
			c1.3,0.7,2.4,1.9,2.9,3.3c0.4,1,0.6,2.9,0.6,5.9v10.5c0,1.8,0,3.6,0.2,5.4c0,0.5,0.2,1,0.6,1.3c0.2,0.2,0.6,0.3,0.9,0.3
			c0.3,0,0.7-0.1,1-0.2c1-0.7,1.9-1.6,2.7-2.5v1.9c-2.5,3.4-4.9,5.1-7.2,5.1c-1,0-2-0.4-2.6-1.1C100.4,78.2,100,76.9,100.1,75.5z
			 M100.1,73.3V61.5c-2.2,0.8-4.4,1.8-6.6,2.9c-1.5,0.7-2.8,1.8-3.8,3.1c-0.8,1-1.2,2.3-1.2,3.6c0,1.5,0.5,2.9,1.4,4
			c0.8,1,2.1,1.6,3.3,1.6C95.1,76.6,97.3,75.5,100.1,73.3z"/>
		<path class="st1" d="M123.9,31.9v41c-0.1,1.3,0.1,2.6,0.4,3.8c0.3,0.6,0.7,1.1,1.3,1.4c1,0.4,2.2,0.6,3.3,0.5v1.2h-15.2v-1.2
			c1,0.1,2-0.1,2.9-0.4c0.6-0.3,1-0.8,1.2-1.4c0.4-1.3,0.5-2.6,0.4-3.9V44.8c0.1-2.1,0-4.3-0.2-6.4c-0.1-0.6-0.3-1.2-0.8-1.6
			c-0.4-0.3-0.9-0.5-1.3-0.4c-0.8,0-1.5,0.2-2.2,0.5l-0.6-1.2l9.2-3.8L123.9,31.9z"/>
		<path class="st1" d="M137.7,60.6c0,4.6,1.1,8.2,3.3,10.8c1.9,2.4,4.8,3.9,7.9,3.9c1.9,0,3.8-0.6,5.3-1.7c1.8-1.5,3-3.5,3.7-5.7
			l1.1,0.7c-0.5,3.1-1.9,6.1-4.1,8.4c-2.1,2.5-5.3,3.9-8.6,3.8c-3.7,0-7.1-1.6-9.5-4.3c-2.7-2.9-4-6.8-4-11.7
			c0-5.3,1.4-9.4,4.1-12.4c2.6-2.9,6.3-4.5,10.2-4.4c3.2-0.1,6.3,1.1,8.5,3.4c2.3,2.5,3.5,5.8,3.4,9.2L137.7,60.6z M137.7,58.6H152
			c0-1.4-0.3-2.8-0.7-4.2c-0.5-1.2-1.4-2.3-2.5-3c-1-0.7-2.2-1.1-3.5-1.1c-1.9,0-3.7,0.8-5,2.2C138.7,54.2,137.8,56.4,137.7,58.6
			L137.7,58.6z"/>
		<path class="st1" d="M172.3,48v7c2.6-4.7,5.3-7,8-7c1.1,0,2.2,0.4,3.1,1.1c0.8,0.7,1.2,1.6,1.2,2.6c0,0.8-0.3,1.6-0.9,2.2
			c-0.5,0.6-1.3,0.9-2.1,0.9c-1-0.1-1.9-0.5-2.6-1.2c-0.6-0.6-1.4-1-2.2-1.2c-0.5,0-1,0.3-1.3,0.7c-1.3,1.3-2.4,2.9-3.1,4.6v14.9
			c-0.1,1.3,0.1,2.6,0.6,3.9c0.3,0.7,0.9,1.2,1.6,1.5c1,0.5,2.1,0.7,3.2,0.6v1.2h-15.9v-1.2c1.2,0.1,2.4-0.2,3.5-0.7
			c0.6-0.4,1-1,1.2-1.7c0.2-1.1,0.2-2.2,0.2-3.3V61c0.1-2.1,0-4.3-0.2-6.4c-0.1-0.6-0.4-1.1-0.8-1.5c-0.4-0.3-0.9-0.5-1.5-0.5
			c-0.8,0-1.6,0.2-2.4,0.5l-0.3-1.2l9.4-3.8H172.3z"/>
		<path class="st1" d="M212.6,54.6c3.6-4.4,7.1-6.6,10.4-6.6c1.6,0,3.1,0.4,4.4,1.3c1.4,1.1,2.4,2.5,2.9,4.2c0.6,2,0.8,4.1,0.8,6.2
			v13.2c-0.1,1.4,0.1,2.7,0.5,4c0.2,0.6,0.7,1,1.2,1.3c1,0.4,2,0.5,3.1,0.5v1.2h-15.3v-1.2h0.7c1,0.1,2.1-0.1,3-0.7
			c0.6-0.5,1-1.2,1.2-1.9c0.1-1.1,0.2-2.1,0.1-3.2V60.3c0-2.8-0.4-4.9-1.1-6.1c-0.8-1.3-2.2-2-3.7-1.9c-2.7,0-5.3,1.5-8,4.4v16.3
			c-0.1,1.3,0,2.6,0.4,3.9c0.3,0.6,0.7,1.1,1.3,1.4c1.1,0.4,2.2,0.6,3.4,0.5v1.2h-15.3v-1.2h0.7c1.6,0,2.6-0.4,3.2-1.2
			s0.8-2.3,0.8-4.6V61.5c0.1-2.3,0-4.5-0.2-6.8c-0.1-0.6-0.3-1.2-0.8-1.7c-0.4-0.3-0.9-0.5-1.4-0.4c-0.8,0-1.5,0.2-2.3,0.5l-0.5-1.2
			l9.3-3.8h1.5V54.6z"/>
		<path class="st1" d="M243.3,60.6c0,4.6,1.1,8.2,3.4,10.8c1.9,2.4,4.8,3.9,7.9,3.9c1.9,0,3.8-0.6,5.3-1.7c1.8-1.5,3.1-3.5,3.8-5.7
			l1,0.7c-0.5,3.1-1.9,6.1-4.1,8.4c-2.1,2.5-5.3,3.9-8.5,3.8c-3.7,0-7.2-1.6-9.6-4.3c-2.7-2.9-4-6.8-4-11.7c0-5.3,1.4-9.4,4.1-12.4
			c2.6-2.9,6.3-4.5,10.2-4.4c3.2-0.1,6.3,1.1,8.6,3.4c2.3,2.5,3.5,5.8,3.3,9.2L243.3,60.6z M243.3,58.6h14.3c0-1.4-0.2-2.8-0.7-4.2
			c-0.5-1.2-1.4-2.3-2.5-3c-1-0.7-2.3-1.1-3.5-1.1c-1.9,0-3.7,0.8-5,2.2C244.3,54.2,243.4,56.4,243.3,58.6L243.3,58.6z"/>
		<path class="st1" d="M277.8,38.8V49h7.2v2.4h-7.2v20c0,2,0.3,3.3,0.9,4.1c0.5,0.7,1.4,1,2.2,1c0.8,0,1.5-0.3,2.2-0.7
			c0.7-0.5,1.3-1.2,1.6-2h1.4c-0.6,2-1.8,3.7-3.4,5c-1.3,1-2.8,1.6-4.5,1.7c-1.1,0-2.1-0.3-3-0.9c-1-0.6-1.8-1.4-2.2-2.5
			c-0.6-1.6-0.8-3.3-0.7-4.9V51.4h-4.9v-1.1c1.4-0.6,2.7-1.5,3.8-2.5c1.3-1.2,2.5-2.6,3.5-4.2c0.8-1.5,1.6-3.1,2.2-4.7H277.8z"/>
		<path class="st0" d="M190.9,81.8c2.4,0,4.3-1.9,4.3-4.3s-1.9-4.3-4.3-4.3c-2.4,0-4.3,1.9-4.3,4.3
			C186.6,79.9,188.6,81.8,190.9,81.8"/>
	</g>
</g>
</svg>
