<svg width="127" height="15" viewBox="0 0 127 15" fill="none" xmlns="http://www.w3.org/2000/svg">
<g clip-path="url(#clip0_5555_82098)">
<path d="M19.4439 1.80027V0.494936C19.4439 0.239275 19.2367 0.0320435 18.981 0.0320435H17.1289C16.8732 0.0320435 16.666 0.239275 16.666 0.494936V7.63373C17.8339 5.54564 17.7484 3.17599 19.4439 1.80027Z" fill="#D54E2D"/>
<path d="M14.3519 0.022583H12.4998C12.2441 0.022583 12.0369 0.229815 12.0369 0.485475V7.42999C12.0369 9.99786 9.93529 12.0842 7.36179 12.0595C4.81307 12.0347 2.77792 9.92014 2.77792 7.37142V0.485475C2.77792 0.229815 2.57069 0.022583 2.31502 0.022583H0.462892C0.207232 0.022583 0 0.229815 0 0.485475V7.35791C0 11.4524 3.29149 14.8256 7.38657 14.8368C11.4805 14.8481 14.8148 11.5211 14.8148 7.42942V0.485475C14.8148 0.229815 14.6076 0.022583 14.3519 0.022583Z" fill="#333333"/>
<path d="M24.074 0.022522H24.0526C19.9581 0.0337846 16.666 3.40693 16.666 7.50144V14.3744C16.666 14.6301 16.8732 14.8373 17.1289 14.8373H18.981C19.2367 14.8373 19.4439 14.6301 19.4439 14.3744V7.42992C19.4439 4.86206 21.5455 2.77566 24.119 2.80044C26.6678 2.82522 28.7029 4.94033 28.7029 7.48905V14.3744C28.7029 14.6301 28.9101 14.8373 29.1658 14.8373H31.0179C31.2736 14.8373 31.4808 14.6301 31.4808 14.3744V7.42992C31.4814 3.34555 28.1584 0.0230851 24.074 0.022522Z" fill="#333333"/>
<path d="M61.342 0.022522C57.2576 0.022522 53.9346 3.34555 53.9346 7.42992C53.9346 11.5143 57.2576 14.8373 61.342 14.8373C65.4264 14.8373 68.7494 11.5143 68.7494 7.42992C68.7494 3.34555 65.4264 0.022522 61.342 0.022522ZM61.342 12.0594C58.7893 12.0594 56.7125 9.98259 56.7125 7.42992C56.7125 4.87726 58.7893 2.80044 61.342 2.80044C63.8946 2.80044 65.9715 4.87726 65.9715 7.42992C65.9715 9.98259 63.8946 12.0594 61.342 12.0594Z" fill="#333333"/>
<path d="M33.7963 0.022522H35.6484C35.9041 0.022522 36.1113 0.229754 36.1113 0.485414V14.3744C36.1113 14.6301 35.9041 14.8373 35.6484 14.8373H33.7969C33.5412 14.8373 33.334 14.6301 33.334 14.3744V0.485414C33.334 0.229754 33.5412 0.022522 33.7969 0.022522H33.7963Z" fill="#333333"/>
<path d="M51.7648 9.51574H49.5602C49.3862 9.51574 49.2246 9.6064 49.1367 9.75619C48.3314 11.1325 46.8363 12.0588 45.1289 12.0549C42.6596 12.0493 40.6115 10.0777 40.5158 7.61067C40.4133 4.97579 42.5273 2.79929 45.1402 2.79929C46.8335 2.79929 48.3162 3.71382 49.1232 5.07434C49.2195 5.23652 49.3946 5.33563 49.5833 5.33563H51.7547C52.0002 5.33563 52.1703 5.09011 52.0847 4.85979C51.0091 1.95967 48.1664 -0.0895585 44.8716 0.0270092C40.9871 0.164976 37.8488 3.32638 37.7384 7.21198C37.6196 11.3926 40.9854 14.8311 45.1396 14.8311C48.3247 14.8311 51.0457 12.8095 52.0886 9.98201C52.172 9.75563 52.0058 9.51517 51.7648 9.51517V9.51574Z" fill="#333333"/>
<path d="M81.824 14.1261V11.4231C81.0108 13.2932 79.3242 14.8379 76.0316 14.8379C72.739 14.8379 70.625 13.1305 70.625 10.4275C70.625 7.72443 72.373 6.58578 75.7675 6.58578H81.8245V6.13866C81.8245 3.35398 80.3609 1.40274 77.2108 1.40274C74.67 1.40274 73.3286 2.52055 73.0442 4.18742C73.0239 4.30961 72.9428 4.37043 72.7801 4.37043H71.6217C71.4184 4.37043 71.3779 4.22796 71.3982 4.02467C71.7028 2.11397 73.4102 0.000549316 77.2925 0.000549316C81.1747 0.000549316 83.3495 2.05316 83.3495 6.1792V14.1261C83.3495 14.3902 83.207 14.5327 82.9834 14.5327H82.2108C81.9873 14.5327 81.8245 14.3902 81.8245 14.1261H81.824ZM76.1532 13.5365C80.4009 13.5365 81.824 10.325 81.824 7.98798V7.86578H76.2141C73.511 7.86578 72.2305 8.53646 72.2305 10.4066C72.2305 12.2768 73.5516 13.5365 76.1532 13.5365Z" fill="#D54E2D"/>
<path d="M85.9502 8.43509V0.711206C85.9502 0.447098 86.0927 0.304626 86.3568 0.304626H87.068C87.3321 0.304626 87.4746 0.447098 87.4746 0.711206V8.43509C87.4746 11.3617 89.0598 13.4148 92.2713 13.4148C95.4828 13.4148 97.0478 11.3622 97.0478 8.43509V0.711206C97.0478 0.447098 97.1903 0.304626 97.4544 0.304626H98.1656C98.4297 0.304626 98.5722 0.447098 98.5722 0.711206V8.43509C98.5722 12.9677 95.6253 14.8373 92.2713 14.8373C88.9173 14.8373 85.9502 12.9672 85.9502 8.43509Z" fill="#D54E2D"/>
<path d="M105.157 14.1261V1.70738H100.746C100.482 1.70738 100.34 1.56491 100.34 1.3008V0.711206C100.34 0.447098 100.482 0.304626 100.746 0.304626H111.092C111.356 0.304626 111.498 0.447098 111.498 0.711206V1.3008C111.498 1.56491 111.356 1.70738 111.092 1.70738H106.681V14.1261C106.681 14.3902 106.539 14.5327 106.275 14.5327H105.563C105.299 14.5327 105.157 14.3902 105.157 14.1261Z" fill="#D54E2D"/>
<path d="M111.193 7.39839C111.193 3.06905 114.425 0 118.612 0C122.799 0 126.031 3.06905 126.031 7.39839C126.031 11.7277 122.799 14.8373 118.612 14.8373C114.425 14.8373 111.193 11.7277 111.193 7.39839ZM118.612 13.4149C121.824 13.4149 124.445 11.0773 124.445 7.39839C124.445 3.71947 121.824 1.42303 118.612 1.42303C115.4 1.42303 112.799 3.6992 112.799 7.39839C112.799 11.0976 115.4 13.4149 118.612 13.4149Z" fill="#D54E2D"/>
</g>
<defs>
<clipPath id="clip0_5555_82098">
<rect width="126.03" height="14.8373" fill="white"/>
</clipPath>
</defs>
</svg>
